<svg width="280" height="280" viewBox="0 0 280 280" fill="none" xmlns="http://www.w3.org/2000/svg">
<path fill-rule="evenodd" clip-rule="evenodd" d="M76.7148 77.2268C76.7148 66.7701 83.4905 57.5123 93.476 54.3257L130.189 42.6084C136.288 40.6618 142.844 40.6618 148.943 42.6084L185.656 54.3257C195.641 57.5123 202.417 66.7701 202.417 77.2268C202.417 77.2268 202.417 146.654 202.417 152.449C202.417 158.244 202.417 163.667 194.919 171.146C187.42 178.625 179.244 190.06 166.908 190.06H112.224C99.8881 190.06 91.712 178.625 84.2134 171.146C76.7148 163.667 76.7148 158.467 76.7148 152.449C76.7148 146.431 76.7148 77.2268 76.7148 77.2268ZM90.7935 91.2683C90.7935 86.8367 94.3953 83.2446 98.8384 83.2446H180.293C184.737 83.2446 188.338 86.8367 188.338 91.2683V114.533C188.338 117.758 186.403 120.669 183.426 121.924L151.312 135.462C143.803 138.627 135.329 138.627 127.82 135.462L95.7063 121.924C92.7286 120.669 90.7935 117.758 90.7935 114.533V91.2683Z" fill="#E6E6E6"/>
<path fill-rule="evenodd" clip-rule="evenodd" d="M68 228.636L102.032 194.585H116.965L110.427 201.127H167.733L161.197 194.587H176.129L211.668 230.146L204.202 237.616L193.878 227.286H84.2812L75.4663 236.106L68 228.636ZM95.343 216.219H182.816L173.766 207.164H104.393L95.343 216.219Z" fill="#E6E6E6"/>
</svg>
