<svg width="3528" height="1120" viewBox="0 0 3528 1120" fill="none" xmlns="http://www.w3.org/2000/svg">
<path fill-rule="evenodd" clip-rule="evenodd" d="M306.859 308.907C306.859 267.081 333.962 230.049 373.904 217.303L520.756 170.434C545.152 162.647 571.376 162.647 595.772 170.434L742.624 217.303C782.566 230.049 809.668 267.081 809.668 308.907C809.668 308.907 809.668 586.615 809.668 609.796C809.668 632.977 809.668 654.668 779.674 684.583C749.68 714.498 716.975 760.241 667.631 760.241H448.897C399.553 760.241 366.848 714.498 336.854 684.583C306.859 654.668 306.859 633.868 306.859 609.796C306.859 585.725 306.859 308.907 306.859 308.907ZM363.174 365.073C363.174 347.347 377.581 332.978 395.354 332.978H721.174C738.946 332.978 753.354 347.347 753.354 365.073V458.133C753.354 471.031 745.613 482.674 733.702 487.695L605.246 541.847C575.211 554.51 541.317 554.51 511.282 541.847L382.825 487.695C370.914 482.674 363.174 471.031 363.174 458.133V365.073Z" fill="#E6E6E6"/>
<path fill-rule="evenodd" clip-rule="evenodd" d="M272 914.543L408.128 778.342H467.859L441.707 804.508H670.931L644.787 778.35H704.518L846.674 920.582L816.808 950.464L775.513 909.146H337.125L301.865 944.424L272 914.543ZM381.372 864.875H731.266L695.066 828.656H417.572L381.372 864.875Z" fill="#E6E6E6"/>
<path d="M3209.18 938.875C3197.6 938.875 3188.07 935.118 3180.58 927.602C3173.09 920.087 3169.34 910.863 3169.34 899.931V633.474C3169.34 591.114 3161.17 556.27 3144.82 528.941C3129.16 501.612 3107.37 481.115 3079.45 467.45C3052.21 453.786 3021.22 446.954 2986.49 446.954C2953.12 446.954 2922.81 453.444 2895.57 466.426C2869.01 479.407 2847.9 497.171 2832.23 519.717C2816.57 542.264 2808.74 567.884 2808.74 596.58H2752.55C2753.92 553.537 2765.49 515.276 2787.29 481.798C2809.08 447.637 2838.02 420.991 2874.12 401.861C2910.21 382.047 2950.39 372.141 2994.66 372.141C3043.01 372.141 3086.26 382.389 3124.39 402.886C3162.53 422.699 3192.5 452.078 3214.29 491.022C3236.76 529.965 3248 577.45 3248 633.474V899.931C3248 910.863 3244.25 920.087 3236.76 927.602C3229.27 935.118 3220.08 938.875 3209.18 938.875ZM2769.92 938.875C2757.66 938.875 2747.79 935.459 2740.3 928.627C2733.49 921.111 2730.08 911.546 2730.08 899.931V418.258C2730.08 405.96 2733.49 396.395 2740.3 389.563C2747.79 382.047 2757.66 378.29 2769.92 378.29C2781.5 378.29 2790.69 382.047 2797.5 389.563C2804.99 396.395 2808.74 405.96 2808.74 418.258V899.931C2808.74 911.546 2804.99 921.111 2797.5 928.627C2790.69 935.459 2781.5 938.875 2769.92 938.875Z" fill="#E6E6E6"/>
<path d="M2572.7 938.876C2560.44 938.876 2550.57 935.46 2543.07 928.627C2536.26 921.112 2532.86 911.205 2532.86 898.907V418.259C2532.86 405.961 2536.26 396.396 2543.07 389.563C2550.57 382.048 2560.44 378.29 2572.7 378.29C2584.28 378.29 2593.47 382.048 2600.28 389.563C2607.77 396.396 2611.52 405.961 2611.52 418.259V898.907C2611.52 911.205 2607.77 921.112 2600.28 928.627C2593.47 935.46 2584.28 938.876 2572.7 938.876ZM2571.68 271.707C2556.7 271.707 2543.76 266.241 2532.86 255.31C2521.96 244.378 2516.51 231.055 2516.51 215.341C2516.51 198.261 2521.96 184.938 2532.86 175.373C2544.44 165.124 2557.72 160 2572.7 160C2587 160 2599.6 165.124 2610.5 175.373C2622.07 184.938 2627.86 198.261 2627.86 215.341C2627.86 231.055 2622.41 244.378 2611.52 255.31C2600.62 266.241 2587.34 271.707 2571.68 271.707Z" fill="#E6E6E6"/>
<path d="M2153.09 944C2100.66 944 2053.66 931.702 2012.12 907.106C1970.58 881.827 1937.55 847.665 1913.03 804.622C1889.2 761.579 1877.28 713.07 1877.28 659.095C1877.28 604.437 1889.54 555.587 1914.05 512.544C1939.25 469.501 1973.3 435.681 2016.21 411.085C2059.11 385.806 2107.47 373.166 2161.27 373.166C2215.07 373.166 2263.08 385.806 2305.3 411.085C2348.21 435.681 2381.92 469.501 2406.44 512.544C2431.63 555.587 2444.57 604.437 2445.25 659.095L2413.59 683.692C2413.59 732.884 2402.01 777.293 2378.85 816.92C2356.38 855.864 2325.39 886.951 2285.89 910.18C2247.08 932.727 2202.81 944 2153.09 944ZM2161.27 872.261C2200.77 872.261 2235.84 863.038 2266.49 844.591C2297.81 826.144 2322.33 800.865 2340.04 768.753C2358.42 735.958 2367.62 699.406 2367.62 659.095C2367.62 618.102 2358.42 581.549 2340.04 549.438C2322.33 517.326 2297.81 492.047 2266.49 473.6C2235.84 454.47 2200.77 444.905 2161.27 444.905C2122.45 444.905 2087.38 454.47 2056.05 473.6C2024.72 492.047 1999.86 517.326 1981.48 549.438C1963.09 581.549 1953.89 618.102 1953.89 659.095C1953.89 699.406 1963.09 735.958 1981.48 768.753C1999.86 800.865 2024.72 826.144 2056.05 844.591C2087.38 863.038 2122.45 872.261 2161.27 872.261ZM2405.41 938.876C2393.84 938.876 2384.3 935.46 2376.81 928.627C2369.32 921.112 2365.57 911.547 2365.57 899.932V724.685L2384.98 643.723L2445.25 659.095V899.932C2445.25 911.547 2441.51 921.112 2434.02 928.627C2426.53 935.46 2416.99 938.876 2405.41 938.876Z" fill="#E6E6E6"/>
<path d="M1594.34 593.505C1596.39 551.145 1607.28 513.226 1627.03 479.748C1647.46 446.27 1673.68 419.966 1705.69 400.836C1738.38 381.706 1774.48 372.141 1813.98 372.141C1845.3 372.141 1869.48 376.582 1886.5 385.464C1903.53 394.345 1910 407.327 1905.91 424.407C1903.19 434.656 1898.42 441.488 1891.61 444.904C1885.48 448.32 1877.65 449.687 1868.12 449.003C1859.26 448.32 1849.05 447.637 1837.47 446.954C1799.33 443.538 1765.28 447.637 1735.32 459.252C1706.03 470.183 1682.54 487.264 1664.83 510.494C1647.81 533.723 1639.29 561.394 1639.29 593.505H1594.34ZM1600.47 938.875C1588.22 938.875 1578.68 935.459 1571.87 928.627C1565.06 921.795 1561.66 912.23 1561.66 899.931V417.233C1561.66 404.935 1565.06 395.37 1571.87 388.538C1578.68 381.706 1588.22 378.29 1600.47 378.29C1612.73 378.29 1622.27 381.706 1629.08 388.538C1635.89 395.37 1639.29 404.935 1639.29 417.233V899.931C1639.29 912.23 1635.89 921.795 1629.08 928.627C1622.27 935.459 1612.73 938.875 1600.47 938.875Z" fill="#E6E6E6"/>
<path d="M1410.12 938.876C1374.02 938.876 1341.67 930.336 1313.07 913.255C1285.15 896.174 1263.02 872.945 1246.67 843.566C1230.33 813.504 1222.15 779.343 1222.15 741.082V239.937C1222.15 228.323 1225.56 218.757 1232.37 211.242C1239.86 203.726 1249.39 199.969 1260.97 199.969C1272.55 199.969 1282.08 203.726 1289.58 211.242C1297.07 218.757 1300.81 228.323 1300.81 239.937V741.082C1300.81 775.927 1311.03 804.622 1331.46 827.169C1351.89 849.032 1378.11 859.963 1410.12 859.963H1437.7C1448.59 859.963 1457.45 863.721 1464.26 871.237C1471.07 878.752 1474.47 888.317 1474.47 899.932C1474.47 911.547 1470.39 921.112 1462.22 928.628C1454.04 935.46 1443.83 938.876 1431.57 938.876H1410.12ZM1155.75 467.451C1145.54 467.451 1137.03 464.377 1130.22 458.228C1123.41 451.395 1120 443.197 1120 433.631C1120 423.383 1123.41 415.184 1130.22 409.035C1137.03 402.203 1145.54 398.787 1155.75 398.787H1416.25C1426.46 398.787 1434.97 402.203 1441.78 409.035C1448.59 415.184 1452 423.383 1452 433.631C1452 443.197 1448.59 451.395 1441.78 458.228C1434.97 464.377 1426.46 467.451 1416.25 467.451H1155.75Z" fill="#E6E6E6"/>
</svg>
