<svg width="882" height="280" viewBox="0 0 882 280" fill="none" xmlns="http://www.w3.org/2000/svg">
<path fill-rule="evenodd" clip-rule="evenodd" d="M76.7148 77.2268C76.7148 66.7701 83.4905 57.5123 93.476 54.3257L130.189 42.6084C136.288 40.6618 142.844 40.6618 148.943 42.6084L185.656 54.3257C195.641 57.5123 202.417 66.7701 202.417 77.2268C202.417 77.2268 202.417 146.654 202.417 152.449C202.417 158.244 202.417 163.667 194.919 171.146C187.42 178.625 179.244 190.06 166.908 190.06H112.224C99.8881 190.06 91.712 178.625 84.2134 171.146C76.7148 163.667 76.7148 158.467 76.7148 152.449C76.7148 146.431 76.7148 77.2268 76.7148 77.2268ZM90.7935 91.2683C90.7935 86.8367 94.3953 83.2446 98.8384 83.2446H180.293C184.737 83.2446 188.338 86.8367 188.338 91.2683V114.533C188.338 117.758 186.403 120.669 183.426 121.924L151.312 135.462C143.803 138.627 135.329 138.627 127.82 135.462L95.7063 121.924C92.7286 120.669 90.7935 117.758 90.7935 114.533V91.2683Z" fill="#E6E6E6"/>
<path fill-rule="evenodd" clip-rule="evenodd" d="M68 228.636L102.032 194.585H116.965L110.427 201.127H167.733L161.197 194.587H176.129L211.668 230.146L204.202 237.616L193.878 227.286H84.2812L75.4663 236.106L68 228.636ZM95.343 216.219H182.816L173.766 207.164H104.393L95.343 216.219Z" fill="#E6E6E6"/>
<path d="M802.295 234.719C799.401 234.719 797.017 233.78 795.145 231.901C793.272 230.022 792.335 227.716 792.335 224.983V158.369C792.335 147.779 790.292 139.068 786.206 132.235C782.29 125.403 776.842 120.279 769.862 116.863C763.051 113.447 755.305 111.739 746.622 111.739C738.279 111.739 730.703 113.361 723.892 116.607C717.252 119.852 711.974 124.293 708.058 129.929C704.143 135.566 702.185 141.971 702.185 149.145H688.138C688.479 138.384 691.373 128.819 696.822 120.45C702.27 111.909 709.506 105.248 718.529 100.465C727.553 95.512 737.598 93.0353 748.665 93.0353C760.753 93.0353 771.564 95.5974 781.098 100.722C790.633 105.675 798.124 113.02 803.572 122.756C809.191 132.491 812 144.363 812 158.369V224.983C812 227.716 811.064 230.022 809.191 231.901C807.318 233.78 805.019 234.719 802.295 234.719ZM692.48 234.719C689.415 234.719 686.947 233.865 685.074 232.157C683.371 230.278 682.52 227.887 682.52 224.983V104.565C682.52 101.49 683.371 99.0989 685.074 97.3908C686.947 95.512 689.415 94.5725 692.48 94.5725C695.374 94.5725 697.673 95.512 699.375 97.3908C701.248 99.0989 702.185 101.49 702.185 104.565V224.983C702.185 227.887 701.248 230.278 699.375 232.157C697.673 233.865 695.374 234.719 692.48 234.719Z" fill="#E6E6E6"/>
<path d="M643.175 234.719C640.11 234.719 637.641 233.865 635.769 232.157C634.066 230.278 633.215 227.801 633.215 224.727V104.565C633.215 101.49 634.066 99.0989 635.769 97.3909C637.641 95.512 640.11 94.5725 643.175 94.5725C646.069 94.5725 648.368 95.512 650.07 97.3909C651.943 99.0989 652.879 101.49 652.879 104.565V224.727C652.879 227.801 651.943 230.278 650.07 232.157C648.368 233.865 646.069 234.719 643.175 234.719ZM642.919 67.9268C639.174 67.9268 635.939 66.5604 633.215 63.8274C630.491 61.0946 629.129 57.7638 629.129 53.8353C629.129 49.5652 630.491 46.2344 633.215 43.8431C636.109 41.281 639.429 40 643.175 40C646.75 40 649.9 41.281 652.624 43.8431C655.518 46.2344 656.966 49.5652 656.966 53.8353C656.966 57.7638 655.604 61.0946 652.879 63.8274C650.155 66.5604 646.835 67.9268 642.919 67.9268Z" fill="#E6E6E6"/>
<path d="M538.274 236C525.164 236 513.416 232.925 503.031 226.776C492.645 220.457 484.387 211.916 478.258 201.156C472.299 190.395 469.32 178.268 469.32 164.774C469.32 151.109 472.384 138.897 478.514 128.136C484.813 117.375 493.326 108.92 504.052 102.771C514.778 96.4514 526.866 93.2915 540.317 93.2915C553.767 93.2915 565.77 96.4514 576.326 102.771C587.052 108.92 595.48 117.375 601.609 128.136C607.909 138.897 611.143 151.109 611.314 164.774L603.397 170.923C603.397 183.221 600.502 194.323 594.714 204.23C589.095 213.966 581.349 221.738 571.474 227.545C561.769 233.182 550.702 236 538.274 236ZM540.317 218.065C550.192 218.065 558.96 215.759 566.621 211.148C574.453 206.536 580.582 200.216 585.009 192.188C589.606 183.99 591.904 174.851 591.904 164.774C591.904 154.525 589.606 145.387 585.009 137.359C580.582 129.332 574.453 123.012 566.621 118.4C558.96 113.617 550.192 111.226 540.317 111.226C530.612 111.226 521.844 113.617 514.012 118.4C506.18 123.012 499.966 129.332 495.369 137.359C490.772 145.387 488.474 154.525 488.474 164.774C488.474 174.851 490.772 183.99 495.369 192.188C499.966 200.216 506.18 206.536 514.012 211.148C521.844 215.759 530.612 218.065 540.317 218.065ZM601.354 234.719C598.459 234.719 596.076 233.865 594.203 232.157C592.33 230.278 591.394 227.887 591.394 224.983V181.171L596.246 160.931L611.314 164.774V224.983C611.314 227.887 610.377 230.278 608.504 232.157C606.632 233.865 604.248 234.719 601.354 234.719Z" fill="#E6E6E6"/>
<path d="M398.586 148.376C399.097 137.786 401.821 128.307 406.759 119.937C411.866 111.568 418.421 104.992 426.423 100.209C434.595 95.4266 443.619 93.0353 453.494 93.0353C461.326 93.0353 467.37 94.1455 471.626 96.366C475.883 98.5865 477.5 101.832 476.479 106.102C475.798 108.664 474.606 110.372 472.903 111.226C471.371 112.08 469.413 112.422 467.029 112.251C464.816 112.08 462.262 111.909 459.368 111.739C449.833 110.885 441.321 111.909 433.829 114.813C426.508 117.546 420.634 121.816 416.208 127.624C411.951 133.431 409.823 140.349 409.823 148.376H398.586ZM400.119 234.719C397.054 234.719 394.67 233.865 392.968 232.157C391.265 230.449 390.414 228.058 390.414 224.983V104.308C390.414 101.234 391.265 98.8427 392.968 97.1346C394.67 95.4266 397.054 94.5725 400.119 94.5725C403.183 94.5725 405.567 95.4266 407.269 97.1346C408.972 98.8427 409.823 101.234 409.823 104.308V224.983C409.823 228.058 408.972 230.449 407.269 232.157C405.567 233.865 403.183 234.719 400.119 234.719Z" fill="#E6E6E6"/>
<path d="M352.529 234.719C343.506 234.719 335.418 232.584 328.268 228.314C321.287 224.044 315.754 218.236 311.668 210.892C307.582 203.376 305.538 194.836 305.538 185.271V59.9843C305.538 57.0806 306.39 54.6893 308.092 52.8105C309.965 50.9316 312.349 49.9922 315.243 49.9922C318.137 49.9922 320.521 50.9316 322.394 52.8105C324.267 54.6893 325.203 57.0806 325.203 59.9843V185.271C325.203 193.982 327.757 201.156 332.865 206.792C337.972 212.258 344.527 214.991 352.529 214.991H359.425C362.149 214.991 364.362 215.93 366.065 217.809C367.767 219.688 368.618 222.079 368.618 224.983C368.618 227.887 367.597 230.278 365.554 232.157C363.511 233.865 360.957 234.719 357.892 234.719H352.529ZM288.938 116.863C286.385 116.863 284.256 116.094 282.554 114.557C280.851 112.849 280 110.799 280 108.408C280 105.846 280.851 103.796 282.554 102.259C284.256 100.551 286.385 99.6968 288.938 99.6968H354.062C356.615 99.6968 358.744 100.551 360.446 102.259C362.149 103.796 363 105.846 363 108.408C363 110.799 362.149 112.849 360.446 114.557C358.744 116.094 356.615 116.863 354.062 116.863H288.938Z" fill="#E6E6E6"/>
</svg>
