<svg width="744" height="198" viewBox="0 0 744 198" fill="none" xmlns="http://www.w3.org/2000/svg">
<path fill-rule="evenodd" clip-rule="evenodd" d="M8.71478 37.2268C8.71478 26.7701 15.4905 17.5123 25.476 14.3257L62.189 2.60839C68.288 0.661788 74.844 0.661788 80.943 2.60839L117.656 14.3257C127.641 17.5123 134.417 26.7701 134.417 37.2268C134.417 37.2268 134.417 106.654 134.417 112.449C134.417 118.244 134.417 123.667 126.919 131.146C119.42 138.625 111.244 150.06 98.908 150.06H44.224C31.8881 150.06 23.712 138.625 16.2134 131.146C8.71479 123.667 8.71478 118.467 8.71478 112.449C8.71478 106.431 8.71478 37.2268 8.71478 37.2268ZM22.7935 51.2683C22.7935 46.8367 26.3953 43.2446 30.8384 43.2446H112.293C116.737 43.2446 120.338 46.8367 120.338 51.2683V74.533C120.338 77.758 118.403 80.669 115.426 81.924L83.312 95.462C75.803 98.627 67.329 98.627 59.82 95.462L27.7063 81.924C24.7286 80.669 22.7935 77.758 22.7935 74.533V51.2683Z" fill="#E6E6E6"/>
<path fill-rule="evenodd" clip-rule="evenodd" d="M0 188.636L34.032 154.585H48.965L42.427 161.127H99.733L93.197 154.587H108.129L143.668 190.146L136.202 197.616L125.878 187.286H16.2812L7.4663 196.106L0 188.636ZM27.343 176.219H114.816L105.766 167.164H36.393L27.343 176.219Z" fill="#E6E6E6"/>
<path d="M734.295 194.719C731.401 194.719 729.017 193.78 727.145 191.901C725.272 190.022 724.335 187.716 724.335 184.983V118.369C724.335 107.779 722.292 99.068 718.206 92.235C714.29 85.403 708.842 80.279 701.862 76.863C695.051 73.447 687.305 71.739 678.622 71.739C670.279 71.739 662.703 73.361 655.892 76.607C649.252 79.852 643.974 84.293 640.058 89.929C636.143 95.566 634.185 101.971 634.185 109.145H620.138C620.479 98.384 623.373 88.819 628.822 80.45C634.27 71.909 641.506 65.248 650.529 60.465C659.553 55.512 669.598 53.0353 680.665 53.0353C692.753 53.0353 703.564 55.5974 713.098 60.722C722.633 65.675 730.124 73.02 735.572 82.756C741.191 92.491 744 104.363 744 118.369V184.983C744 187.716 743.064 190.022 741.191 191.901C739.318 193.78 737.019 194.719 734.295 194.719ZM624.48 194.719C621.415 194.719 618.947 193.865 617.074 192.157C615.371 190.278 614.52 187.887 614.52 184.983V64.565C614.52 61.49 615.371 59.0989 617.074 57.3908C618.947 55.512 621.415 54.5725 624.48 54.5725C627.374 54.5725 629.673 55.512 631.375 57.3908C633.248 59.0989 634.185 61.49 634.185 64.565V184.983C634.185 187.887 633.248 190.278 631.375 192.157C629.673 193.865 627.374 194.719 624.48 194.719Z" fill="#E6E6E6"/>
<path d="M575.175 194.719C572.11 194.719 569.641 193.865 567.769 192.157C566.066 190.278 565.215 187.801 565.215 184.727V64.565C565.215 61.49 566.066 59.0989 567.769 57.3909C569.641 55.512 572.11 54.5725 575.175 54.5725C578.069 54.5725 580.368 55.512 582.07 57.3909C583.943 59.0989 584.879 61.49 584.879 64.565V184.727C584.879 187.801 583.943 190.278 582.07 192.157C580.368 193.865 578.069 194.719 575.175 194.719ZM574.919 27.9268C571.174 27.9268 567.939 26.5604 565.215 23.8274C562.491 21.0946 561.129 17.7638 561.129 13.8353C561.129 9.5652 562.491 6.2344 565.215 3.8431C568.109 1.281 571.429 0 575.175 0C578.75 0 581.9 1.281 584.624 3.8431C587.518 6.2344 588.966 9.5652 588.966 13.8353C588.966 17.7638 587.604 21.0946 584.879 23.8274C582.155 26.5604 578.835 27.9268 574.919 27.9268Z" fill="#E6E6E6"/>
<path d="M470.274 196C457.164 196 445.416 192.925 435.031 186.776C424.645 180.457 416.387 171.916 410.258 161.156C404.299 150.395 401.32 138.268 401.32 124.774C401.32 111.109 404.384 98.897 410.514 88.136C416.813 77.375 425.326 68.92 436.052 62.771C446.778 56.4514 458.866 53.2915 472.317 53.2915C485.767 53.2915 497.77 56.4514 508.326 62.771C519.052 68.92 527.48 77.375 533.609 88.136C539.909 98.897 543.143 111.109 543.314 124.774L535.397 130.923C535.397 143.221 532.502 154.323 526.714 164.23C521.095 173.966 513.349 181.738 503.474 187.545C493.769 193.182 482.702 196 470.274 196ZM472.317 178.065C482.192 178.065 490.96 175.759 498.621 171.148C506.453 166.536 512.582 160.216 517.009 152.188C521.606 143.99 523.904 134.851 523.904 124.774C523.904 114.525 521.606 105.387 517.009 97.359C512.582 89.332 506.453 83.012 498.621 78.4C490.96 73.617 482.192 71.226 472.317 71.226C462.612 71.226 453.844 73.617 446.012 78.4C438.18 83.012 431.966 89.332 427.369 97.359C422.772 105.387 420.474 114.525 420.474 124.774C420.474 134.851 422.772 143.99 427.369 152.188C431.966 160.216 438.18 166.536 446.012 171.148C453.844 175.759 462.612 178.065 472.317 178.065ZM533.354 194.719C530.459 194.719 528.076 193.865 526.203 192.157C524.33 190.278 523.394 187.887 523.394 184.983V141.171L528.246 120.931L543.314 124.774V184.983C543.314 187.887 542.377 190.278 540.504 192.157C538.632 193.865 536.248 194.719 533.354 194.719Z" fill="#E6E6E6"/>
<path d="M330.586 108.376C331.097 97.786 333.821 88.307 338.759 79.937C343.866 71.568 350.421 64.992 358.423 60.209C366.595 55.4266 375.619 53.0353 385.494 53.0353C393.326 53.0353 399.37 54.1455 403.626 56.366C407.883 58.5865 409.5 61.832 408.479 66.102C407.798 68.664 406.606 70.372 404.903 71.226C403.371 72.08 401.413 72.422 399.029 72.251C396.816 72.08 394.262 71.909 391.368 71.739C381.833 70.885 373.321 71.909 365.829 74.813C358.508 77.546 352.634 81.816 348.208 87.624C343.951 93.431 341.823 100.349 341.823 108.376H330.586ZM332.119 194.719C329.054 194.719 326.67 193.865 324.968 192.157C323.265 190.449 322.414 188.058 322.414 184.983V64.308C322.414 61.234 323.265 58.8427 324.968 57.1346C326.67 55.4266 329.054 54.5725 332.119 54.5725C335.183 54.5725 337.567 55.4266 339.269 57.1346C340.972 58.8427 341.823 61.234 341.823 64.308V184.983C341.823 188.058 340.972 190.449 339.269 192.157C337.567 193.865 335.183 194.719 332.119 194.719Z" fill="#E6E6E6"/>
<path d="M284.529 194.719C275.506 194.719 267.418 192.584 260.268 188.314C253.287 184.044 247.754 178.236 243.668 170.892C239.582 163.376 237.538 154.836 237.538 145.271V19.9843C237.538 17.0806 238.39 14.6893 240.092 12.8105C241.965 10.9316 244.349 9.99219 247.243 9.99219C250.137 9.99219 252.521 10.9316 254.394 12.8105C256.267 14.6893 257.203 17.0806 257.203 19.9843V145.271C257.203 153.982 259.757 161.156 264.865 166.792C269.972 172.258 276.527 174.991 284.529 174.991H291.425C294.149 174.991 296.362 175.93 298.065 177.809C299.767 179.688 300.618 182.079 300.618 184.983C300.618 187.887 299.597 190.278 297.554 192.157C295.511 193.865 292.957 194.719 289.892 194.719H284.529ZM220.938 76.863C218.385 76.863 216.256 76.094 214.554 74.557C212.851 72.849 212 70.799 212 68.408C212 65.846 212.851 63.796 214.554 62.259C216.256 60.551 218.385 59.6968 220.938 59.6968H286.062C288.615 59.6968 290.744 60.551 292.446 62.259C294.149 63.796 295 65.846 295 68.408C295 70.799 294.149 72.849 292.446 74.557C290.744 76.094 288.615 76.863 286.062 76.863H220.938Z" fill="#E6E6E6"/>
</svg>
